HIERARCHY
ROOT root
{
	OFFSET 0.000000 0.000000 0.000000
	CHANNELS 6 Xposition Yposition Zposition Zrotation Yrotation Xrotation
	JOINT lhip
	{
		OFFSET 0.058581 -0.082280 -0.017664
		CHANNELS 3 Zrotation Yrotation Xrotation
		JOINT lknee
		{
			OFFSET 0.043451 -0.386469 0.008037
			CHANNELS 3 Zrotation Yrotation Xrotation
			JOINT lankle
			{
				OFFSET -0.014790 -0.426874 -0.037428
				CHANNELS 3 Zrotation Yrotation Xrotation
				JOINT ltoe
				{
					OFFSET 0.041054 -0.060286 0.122042
					CHANNELS 3 Zrotation Yrotation Xrotation
					End Site
					{
						OFFSET 0.000000 0.000000 0.000000
					}
				}
			}
		}
	}
	JOINT rhip
	{
		OFFSET -0.060310 -0.090513 -0.013543
		CHANNELS 3 Zrotation Yrotation Xrotation
		JOINT rknee
		{
			OFFSET -0.043257 -0.383688 -0.004843
			CHANNELS 3 Zrotation Yrotation Xrotation
			JOINT rankle
			{
				OFFSET 0.019056 -0.420046 -0.034562
				CHANNELS 3 Zrotation Yrotation Xrotation
				JOINT rtoe
				{
					OFFSET -0.034840 -0.062106 0.130323
					CHANNELS 3 Zrotation Yrotation Xrotation
					End Site
					{
						OFFSET 0.000000 0.000000 0.000000
					}
				}
			}
		}
	}
	JOINT lowerback
	{
		OFFSET 0.004439 0.124404 -0.038385
		CHANNELS 3 Zrotation Yrotation Xrotation
		JOINT upperback
		{
			OFFSET 0.004488 0.137956 0.026820
			CHANNELS 3 Zrotation Yrotation Xrotation
			JOINT chest
			{
				OFFSET -0.002265 0.056032 0.002855
				CHANNELS 3 Zrotation Yrotation Xrotation
				JOINT lowerneck
				{
					OFFSET -0.013390 0.211636 -0.033468
					CHANNELS 3 Zrotation Yrotation Xrotation
					JOINT upperneck
					{
						OFFSET 0.010113 0.088937 0.050410
						CHANNELS 3 Zrotation Yrotation Xrotation
						End Site
						{
							OFFSET 0.000000 0.000000 0.000000
						}
					}
				}
				JOINT lclavicle
				{
					OFFSET 0.071702 0.114000 -0.018898
					CHANNELS 3 Zrotation Yrotation Xrotation
					JOINT lshoulder
					{
						OFFSET 0.122921 0.045205 -0.019046
						CHANNELS 3 Zrotation Yrotation Xrotation
						JOINT lelbow
						{
							OFFSET 0.255332 -0.015649 -0.022946
							CHANNELS 3 Zrotation Yrotation Xrotation
							JOINT lwrist
							{
								OFFSET 0.265709 0.012698 -0.007375
								CHANNELS 3 Zrotation Yrotation Xrotation
								End Site
								{
									OFFSET 0.000000 0.000000 0.000000
								}
							}
						}
					}
				}
				JOINT rclavicle
				{
					OFFSET -0.082954 0.112472 -0.023707
					CHANNELS 3 Zrotation Yrotation Xrotation
					JOINT rshoulder
					{
						OFFSET -0.113228 0.046853 -0.008472
						CHANNELS 3 Zrotation Yrotation Xrotation
						JOINT relbow
						{
							OFFSET -0.260127 -0.014369 -0.031269
							CHANNELS 3 Zrotation Yrotation Xrotation
							JOINT rwrist
							{
								OFFSET -0.269108 0.006794 -0.006027
								CHANNELS 3 Zrotation Yrotation Xrotation
								End Site
								{
									OFFSET 0.000000 0.000000 0.000000
								}
							}
						}
					}
				}
			}
		}
	}
}
MOTION
Frames: 13
Frame Time: 0.033333
0.124425 -0.351685 0.979358 -93.870612 -1.273006 84.999620 6.945824 7.734396 -16.697830 -7.888231 11.371027 35.418960 2.816505 5.208283 -19.948716 0.000000 -0.000000 0.000000 -7.162553 -14.564984 -19.151557 -4.966018 -22.173648 41.304203 -0.495239 -15.548876 -16.367515 0.000000 -0.000000 0.000000 -1.634268 3.893198 16.963816 1.173478 1.155625 -7.718923 2.434321 1.911906 -6.175857 -5.006831 0.603871 -15.818858 0.729616 -0.888316 4.803749 1.738898 -20.595106 -9.579594 -43.638234 -30.726073 16.834423 162.441658 -72.210214 -150.149370 11.300946 -10.994443 -67.145398 4.563648 24.919313 -3.817144 41.784518 23.272861 14.560547 -85.409450 78.872673 -90.163793 7.894814 19.816918 -67.798296 
0.126943 -0.358936 0.985974 -93.252467 -1.308467 84.758099 7.462639 6.750339 -16.695407 -8.477860 10.333363 37.840502 2.230107 7.717476 -19.572925 0.000000 -0.000000 0.000000 -7.333845 -14.823470 -18.162058 -3.795008 -20.466280 38.549320 -0.299653 -17.171599 -13.968779 0.000000 -0.000000 0.000000 -2.245439 4.555776 17.039258 0.984996 0.973848 -6.878487 2.414172 1.555055 -6.211496 -3.537608 0.323117 -14.688161 2.084287 0.262018 1.994395 0.259624 -16.739859 -8.254525 -32.535105 -22.206357 11.123492 159.628176 -66.736417 -152.851730 9.920770 -7.828927 -65.807366 5.319281 21.874420 -4.104381 36.457953 18.415962 11.870376 -89.529220 76.556506 -96.580899 9.190890 18.651914 -62.444834 
0.130657 -0.369069 0.990035 -93.339802 -0.586640 84.658405 8.060956 5.621284 -16.188437 -6.880585 8.579235 41.559251 1.947457 10.438618 -19.772417 0.000000 -0.000000 0.000000 -8.182723 -14.256107 -18.077170 -2.367786 -20.099632 38.080702 1.062891 -16.943913 -10.585850 0.000000 -0.000000 0.000000 -1.765367 4.694653 17.163270 0.424977 1.185266 -8.160880 2.776857 1.621303 -4.650016 -2.619595 0.030711 -12.732342 3.010742 0.741822 -0.673804 -2.503767 -12.222766 -4.861756 -20.197153 -14.660170 3.912369 144.648194 -70.837401 -143.731482 0.388513 -18.475118 -45.399588 5.538164 17.784521 -4.068340 29.573236 13.471055 6.930043 -78.599285 75.564740 -89.439672 10.922450 19.485734 -57.208497 
0.134286 -0.381954 0.989756 -94.432747 0.864393 84.359316 8.766207 5.465037 -13.005484 -7.439069 2.746804 40.324435 1.774803 12.189556 -19.348948 0.000000 -0.000000 0.000000 -9.340469 -14.492499 -20.606959 -0.220513 -19.263500 42.365819 2.327365 -17.085631 -5.684767 0.000000 -0.000000 0.000000 -0.366024 3.754697 17.440213 0.306274 2.497288 -8.919429 2.577506 1.791390 -3.348308 -1.577126 -0.629141 -11.100764 2.952448 1.885713 -3.383548 -2.766291 -6.757960 -4.286962 -12.677420 -7.252921 0.841478 119.049939 -77.192355 -120.239319 -4.170645 -19.389844 -37.531593 4.955293 13.532616 -4.896168 22.647437 9.701410 2.640730 -53.828981 72.735945 -67.856134 12.689177 19.263451 -52.385568 
0.137406 -0.396523 0.984511 -96.626089 2.630137 83.438729 9.759929 6.352207 -7.225669 -9.440014 -4.202435 34.003544 3.183058 14.044404 -23.151925 0.000000 -0.000000 0.000000 -11.075745 -15.501786 -25.865090 0.620341 -20.814470 51.600667 3.053716 -17.991642 2.408784 0.000000 -0.000000 0.000000 1.392466 1.624687 18.780515 -0.075831 4.277021 -9.502091 2.450380 2.789399 -2.740578 -1.001200 -1.079614 -8.798315 2.827705 3.030340 -6.963855 -1.265386 -2.083621 -4.891277 -7.902062 -1.422146 -1.039187 48.983244 -78.319731 -52.535671 -9.269825 -17.570878 -31.072733 3.094986 10.581763 -5.744974 16.105267 7.648862 -1.733628 -25.699949 64.662185 -42.921762 16.331660 18.505198 -44.548494 
0.141316 -0.410373 0.976468 -99.437450 4.168980 81.396447 11.134434 8.292117 -3.136038 -10.568244 -5.875623 31.246527 5.696422 17.268780 -26.559851 0.000000 -0.000000 0.000000 -12.706023 -16.893853 -32.194296 -0.644307 -23.526196 62.946967 2.699092 -19.919315 14.799858 0.000000 -0.000000 0.000000 2.579920 -0.666384 22.530271 -0.796263 6.061619 -10.981223 2.630165 4.022265 -2.372331 -1.345896 -2.245080 -6.737618 3.309020 4.828300 -10.127266 1.659763 0.598022 -6.443078 -5.447214 2.417073 -2.401085 9.847109 -66.553674 -13.365778 -10.240554 -11.110308 -22.079408 -0.320579 9.520047 -7.508133 11.053663 7.192068 -4.941047 -7.461270 50.679086 -25.669499 19.274215 13.911455 -30.846232 
0.146479 -0.420301 0.970285 -101.478701 4.864498 78.127863 12.779342 9.823907 -0.307893 -12.275370 -5.849276 32.073812 6.390330 19.454297 -26.447832 0.000000 -0.000000 0.000000 -14.154050 -19.150356 -37.844980 -1.210491 -25.234125 75.418302 4.414319 -18.477643 27.571424 0.000000 -0.000000 0.000000 2.939272 -2.199846 28.026556 -1.844169 6.970544 -12.236523 2.680989 4.809650 -2.008901 -2.100171 -2.958698 -6.620824 3.977521 5.728805 -11.516334 4.432986 0.985776 -8.375211 -4.727200 4.817973 -3.942471 0.194161 -52.836297 -0.878229 -8.178602 -5.920918 -11.013614 -4.271941 9.882565 -9.633357 8.060512 7.444274 -6.586169 1.185483 36.342711 -10.698461 20.992023 5.778357 -8.708988 
0.151228 -0.427930 0.968033 -101.770265 5.281659 75.380563 13.829751 9.906088 2.214891 -13.895886 -6.671717 32.320834 6.938145 20.944392 -26.112126 0.000000 -0.000000 0.000000 -15.714669 -22.734057 -42.649524 -2.253769 -28.785993 90.207231 7.667810 -15.875685 35.076867 0.000000 -0.000000 0.000000 4.169495 -3.651225 31.708770 -3.072239 6.751863 -11.731421 1.747429 4.934906 -2.141785 -3.566338 -3.810793 -6.538158 4.835619 6.180280 -12.826795 5.950623 -1.116543 -9.048162 -5.039865 7.692486 -6.060130 0.667655 -42.293151 3.435564 -6.514796 -4.018712 4.046234 -7.502102 11.481402 -9.435043 7.087174 5.369611 -6.918792 3.731159 32.139463 7.097195 27.991280 -3.462624 15.692416 
0.154696 -0.436233 0.968401 -101.930881 5.908759 74.126414 14.171857 9.943912 3.315637 -14.225162 -7.191096 32.393489 7.651554 21.839412 -26.668344 0.000000 -0.000000 0.000000 -16.200357 -26.004973 -47.257743 -5.938504 -33.330120 106.357168 11.125797 -12.919365 39.508066 0.000000 -0.000000 0.000000 6.547628 -5.239182 33.258989 -4.077288 6.303928 -11.392256 0.190323 4.847275 -2.631927 -5.690876 -4.024389 -5.086956 5.030636 6.048136 -14.097525 7.023743 -3.415273 -9.197111 -7.036898 10.364265 -7.394255 3.536157 -37.068046 3.232974 -1.966673 -4.108588 14.800951 -9.462437 12.392627 -8.440845 6.890013 2.962595 -6.852480 7.523619 38.857642 23.262254 29.763433 -7.645875 27.205877 
0.155752 -0.444317 0.968964 -103.058591 6.047685 73.426434 14.181944 10.810418 4.102047 -14.064968 -7.040271 32.272007 7.775937 22.249043 -27.053981 0.000000 -0.000000 0.000000 -15.464691 -28.071533 -51.241911 -10.292805 -36.082265 121.046940 14.770351 -9.605812 42.958041 0.000000 -0.000000 0.000000 8.205913 -6.323826 34.612541 -4.611196 6.259540 -12.894576 -0.743235 4.981089 -2.795878 -7.906511 -3.326307 -2.649599 3.979636 5.547818 -14.636830 8.028586 -3.818467 -9.519206 -9.929469 11.114146 -7.715405 2.503680 -36.347103 2.966404 7.237663 -7.235023 14.926663 -10.712556 11.569100 -8.326909 6.738735 2.781202 -6.784748 13.888347 49.244142 33.833146 19.901704 -1.634467 29.848629 
0.155543 -0.451430 0.969061 -104.581642 5.234892 72.922886 13.252264 11.660035 5.257034 -13.711138 -6.512345 31.372000 7.812593 22.469267 -27.305333 0.000000 -0.000000 0.000000 -14.838619 -29.171963 -53.697405 -13.038010 -36.587832 131.634818 18.384731 -6.730957 44.518864 0.000000 -0.000000 0.000000 8.572689 -6.564319 35.829997 -4.637165 6.160848 -15.173535 -0.749917 5.178418 -2.754222 -9.674396 -2.031988 -0.369809 1.842508 4.957392 -13.921485 8.535737 -3.671916 -9.828713 -12.826273 11.278770 -7.430424 -0.281413 -37.601358 5.777006 16.842181 -11.332918 14.960001 -11.943436 10.467955 -8.509036 7.001289 3.603687 -6.664675 22.971175 61.651010 43.712883 5.686501 7.175686 26.571672 
0.155656 -0.457578 0.968744 -105.962799 4.019643 73.009462 11.781665 12.174463 5.780318 -13.385043 -5.559352 30.545862 7.812881 22.064181 -27.824032 0.000000 -0.000000 0.000000 -15.469680 -29.227180 -54.066121 -12.880377 -35.984604 135.943047 23.471243 -3.280435 44.538640 0.000000 -0.000000 0.000000 8.804811 -6.154348 35.853094 -4.103910 5.837616 -16.297304 -0.791823 5.309766 -3.140227 -10.400189 -0.198474 0.643461 -0.793781 3.510317 -11.870409 8.323561 -4.296523 -10.131510 -15.452903 11.652543 -7.268498 -1.096748 -38.159871 8.066897 24.253584 -16.699255 19.311123 -12.282565 9.750670 -8.427461 7.674222 4.481584 -6.635429 42.281003 75.781842 64.303275 -7.346522 13.884512 22.497255 
0.155627 -0.463364 0.968079 -106.968212 3.140099 73.611783 10.705127 12.707852 5.482258 -12.987728 -4.156911 30.159370 7.308475 20.449284 -28.504261 0.000000 -0.000000 0.000000 -17.523560 -28.282348 -51.644511 -9.858224 -34.732264 133.251886 29.545149 1.852167 41.332283 0.000000 -0.000000 0.000000 9.478985 -5.483860 34.761403 -2.944605 5.421229 -15.832583 -1.057057 5.463496 -4.099464 -10.451803 1.203592 0.765663 -3.192758 1.333826 -9.950496 7.605576 -4.893188 -10.087772 -18.288400 11.622402 -7.489978 0.009959 -38.510894 7.323545 30.158435 -22.406954 20.443260 -11.179255 9.048334 -8.094704 9.612857 5.360577 -6.930350 140.218601 82.095180 163.836812 -16.257751 18.198592 18.229487 
